<?xml version="1.0" encoding="utf-8"?>
<!-- Generator: Adobe Illustrator 19.0.0, SVG Export Plug-In . SVG Version: 6.00 Build 0)  -->
<svg version="1.1" id="Layer_1" xmlns="http://www.w3.org/2000/svg" xmlns:xlink="http://www.w3.org/1999/xlink" x="0px" y="0px"
	 viewBox="0 0 267.5 66.8" style="enable-background:new 0 0 267.5 66.8;" xml:space="preserve">
<style type="text/css">
	.st0{clip-path:url(#SVGID_2_);fill:#231F20;}
	.st1{clip-path:url(#SVGID_2_);fill:#64AB30;}
</style>
<g>
	<defs>
		<rect id="SVGID_1_" width="266.9" height="66.8"/>
	</defs>
	<clipPath id="SVGID_2_">
		<use xlink:href="#SVGID_1_"  style="overflow:visible;"/>
	</clipPath>
	<path class="st0" d="M7.1,44.3c0.6,0.9,1.3,1.7,2.3,2.2c0.9,0.6,2,0.9,3.2,1.2c1.2,0.2,2.4,0.4,3.6,0.4c1,0,2-0.1,3-0.2
		c1.1-0.1,2-0.4,2.9-0.8c0.9-0.4,1.6-0.9,2.2-1.7c0.6-0.7,0.9-1.7,0.9-2.8c0-1.6-0.6-2.8-1.8-3.6c-1.2-0.8-2.7-1.5-4.5-2
		c-1.8-0.5-3.8-1-5.9-1.4c-2.1-0.4-4.1-1-5.9-1.7c-1.8-0.7-3.3-1.8-4.5-3.1c-1.2-1.3-1.8-3.2-1.8-5.6c0-1.9,0.4-3.5,1.3-4.8
		C2.9,19,4,17.9,5.3,17c1.3-0.8,2.8-1.5,4.5-1.9c1.7-0.4,3.3-0.6,4.9-0.6c2.1,0,4.1,0.2,5.8,0.5c1.8,0.4,3.3,1,4.7,1.9
		c1.4,0.9,2.5,2.1,3.3,3.6c0.8,1.5,1.3,3.4,1.4,5.7h-6.1c-0.1-1.2-0.4-2.2-0.9-3c-0.5-0.8-1.2-1.4-2-1.9c-0.8-0.5-1.7-0.8-2.7-1
		c-1-0.2-2-0.3-3-0.3c-0.9,0-1.8,0.1-2.8,0.2s-1.8,0.4-2.6,0.8c-0.8,0.4-1.4,0.8-1.9,1.4c-0.5,0.6-0.7,1.4-0.7,2.3
		c0,1.1,0.4,1.9,1.1,2.6c0.7,0.7,1.7,1.3,2.8,1.7c1.2,0.5,2.4,0.8,3.9,1.2c1.4,0.3,2.9,0.6,4.3,1c1.5,0.3,3,0.7,4.5,1.2
		c1.5,0.5,2.8,1.1,3.9,1.9c1.1,0.8,2,1.8,2.7,3c0.7,1.2,1,2.7,1,4.5c0,2.3-0.5,4.1-1.4,5.6c-0.9,1.5-2.2,2.7-3.7,3.6
		c-1.5,0.9-3.2,1.5-5.1,1.9s-3.8,0.5-5.7,0.5c-2.1,0-4-0.2-5.9-0.6s-3.5-1.1-5-2.1c-1.4-1-2.6-2.3-3.5-3.9c-0.9-1.6-1.3-3.6-1.4-5.9
		h6.1C6.2,42.2,6.5,43.4,7.1,44.3"/>
	<path class="st1" d="M41.5,15.4h8v8h-8V15.4z M49.5,52.6h-8v-8h8V52.6z"/>
	<path class="st1" d="M67.6,50.6c1.4-5.4,2.2-11,2.2-16.9c0-6-0.7-11.8-2.2-17.2C66.1,11,63.7,5.5,60.3,0h4.6c1.7,2.7,3.3,5.4,4.7,8
		c1.4,2.7,2.6,5.4,3.6,8.1c1,2.8,1.7,5.6,2.3,8.5c0.5,2.9,0.8,5.9,0.8,9.1c0,5.7-0.9,11.4-2.8,17.1c-1.9,5.7-4.7,11.1-8.5,16h-4.6
		C63.7,61.4,66.2,56,67.6,50.6"/>
	<path class="st0" d="M93.6,15.4v5.9h0.1c2.5-4.5,6.6-6.8,12.1-6.8c2.4,0,4.5,0.3,6.1,1c1.6,0.7,3,1.6,4,2.8c1,1.2,1.7,2.6,2.1,4.3
		c0.4,1.7,0.6,3.5,0.6,5.5v24.5h-6.1V27.4c0-2.3-0.7-4.1-2-5.5c-1.3-1.3-3.2-2-5.5-2c-1.9,0-3.5,0.3-4.9,0.9
		c-1.4,0.6-2.5,1.4-3.4,2.4c-0.9,1.1-1.6,2.3-2.1,3.7c-0.5,1.4-0.7,3-0.7,4.6v21h-6.1V15.4H93.6z"/>
	<path class="st0" d="M145.6,15.4v5.4h-7.4v23.1c0,0.7,0.1,1.3,0.2,1.7c0.1,0.4,0.3,0.8,0.7,1c0.3,0.2,0.8,0.4,1.4,0.5
		c0.6,0.1,1.4,0.1,2.3,0.1h2.8v5.4h-4.7c-1.6,0-2.9-0.1-4.1-0.3c-1.1-0.2-2-0.6-2.7-1.2c-0.7-0.6-1.2-1.4-1.5-2.4
		c-0.3-1.1-0.5-2.4-0.5-4.2V20.8h-6.3v-5.4h6.3V4.2h6.1v11.2H145.6z"/>
	<path class="st0" d="M154.5,1.2h6.1v7.5h-6.1V1.2z M160.6,52.6h-6.1V15.4h6.1V52.6z"/>
	<path class="st0" d="M177.7,15.4v5.5h0.1c2.8-4.2,6.8-6.3,12-6.3c2.3,0,4.4,0.5,6.3,1.4c1.9,1,3.2,2.6,4,4.9c1.2-2,2.9-3.6,4.9-4.7
		c2-1.1,4.3-1.7,6.7-1.7c1.9,0,3.6,0.2,5.1,0.6c1.5,0.4,2.8,1,3.9,1.9s1.9,2,2.5,3.3c0.6,1.4,0.9,3,0.9,4.9v27.3H218V28.2
		c0-1.2-0.1-2.2-0.3-3.2c-0.2-1-0.6-1.9-1.1-2.6c-0.5-0.7-1.3-1.3-2.2-1.8s-2.1-0.6-3.6-0.6c-3,0-5.4,0.9-7.1,2.6s-2.6,4-2.6,6.9
		v23.2H195V28.2c0-1.2-0.1-2.3-0.3-3.3s-0.6-1.9-1.1-2.6c-0.5-0.7-1.2-1.3-2.1-1.7c-0.9-0.4-2-0.6-3.4-0.6c-1.8,0-3.3,0.4-4.6,1.1
		c-1.3,0.7-2.3,1.6-3.1,2.6c-0.8,1-1.4,2.1-1.7,3.1c-0.4,1.1-0.5,2-0.5,2.7v23.2h-6.1V15.4H177.7z"/>
	<path class="st0" d="M261.5,50.3c-2.8,2.1-6.3,3.2-10.5,3.2c-3,0-5.6-0.5-7.7-1.4c-2.2-1-4-2.3-5.5-4c-1.5-1.7-2.6-3.8-3.3-6.2
		c-0.7-2.4-1.2-5-1.3-7.8c0-2.8,0.4-5.4,1.3-7.8c0.9-2.4,2.1-4.4,3.6-6.1c1.6-1.7,3.4-3.1,5.5-4c2.1-1,4.5-1.4,7-1.4
		c3.3,0,6.1,0.7,8.2,2.1s3.9,3.1,5.3,5.2c1.3,2.1,2.2,4.4,2.7,6.9c0.5,2.5,0.7,4.9,0.6,7.1h-27.9c0,1.6,0.1,3.2,0.6,4.6
		c0.4,1.5,1.1,2.8,2.1,3.9c1,1.1,2.2,2,3.7,2.7c1.5,0.7,3.2,1,5.3,1c2.6,0,4.7-0.6,6.4-1.8c1.7-1.2,2.7-3,3.3-5.5h6
		C266.1,45,264.3,48.1,261.5,50.3 M260,26.4c-0.6-1.3-1.3-2.4-2.2-3.3c-0.9-0.9-2-1.7-3.3-2.2c-1.3-0.6-2.7-0.8-4.2-0.8
		c-1.6,0-3,0.3-4.3,0.8c-1.3,0.6-2.4,1.3-3.3,2.3c-0.9,1-1.6,2.1-2.2,3.3c-0.5,1.3-0.8,2.6-0.9,4.1H261
		C260.9,29,260.6,27.6,260,26.4"/>
</g>
</svg>
